<?xml version="1.0" encoding="utf-8"?>
<svg viewBox="0 0 512 512" xmlns="http://www.w3.org/2000/svg" xmlns:xlink="http://www.w3.org/1999/xlink">
	<style>
		:root>svg{display:none}:root>svg:target{display:block}
	</style>
<defs>
			<linearGradient id="aa" x1="0" x2="0" y1="0" y2="1">
				<stop offset="0" stop-color="#ff2f96" />
				<stop offset="1" stop-color="#ff8f5a" />
			</linearGradient>
            <symbol id="vkall">
		<path d="M261.945 175.576c10.096 9.857 20.752 19.131 29.807 29.982 4 4.822 7.787 9.798 10.684 15.394 4.105 7.955.387 16.709-6.746 17.184l-44.34-.02c-11.436.949-20.559-3.655-28.23-11.474-6.139-6.253-11.824-12.908-17.727-19.372-2.42-2.642-4.953-5.128-7.979-7.093-6.053-3.929-11.307-2.726-14.766 3.587-3.523 6.421-4.322 13.531-4.668 20.687-.475 10.441-3.631 13.186-14.119 13.664-22.414 1.057-43.686-2.334-63.447-13.641-17.422-9.968-30.932-24.04-42.691-39.971-22.895-31.021-40.428-65.108-56.186-100.15C-2.01 76.458.584 72.22 9.295 72.07c14.465-.281 28.928-.261 43.41-.02 5.879.086 9.771 3.458 12.041 9.012 7.826 19.243 17.402 37.551 29.422 54.521 3.201 4.518 6.465 9.036 11.113 12.216 5.142 3.521 9.057 2.354 11.476-3.374 1.535-3.632 2.207-7.544 2.553-11.434 1.146-13.383 1.297-26.743-.713-40.079-1.234-8.323-5.922-13.711-14.227-15.286-4.238-.803-3.607-2.38-1.555-4.799 3.564-4.172 6.916-6.769 13.598-6.769h50.111c7.889 1.557 9.641 5.101 10.721 13.039l.043 55.663c-.086 3.073 1.535 12.192 7.07 14.226 4.43 1.448 7.35-2.096 10.008-4.905 11.998-12.734 20.561-27.783 28.211-43.366 3.395-6.852 6.314-13.968 9.143-21.078 2.096-5.276 5.385-7.872 11.328-7.757l48.229.043c1.43 0 2.877.021 4.262.258 8.127 1.385 10.354 4.881 7.844 12.817-3.955 12.451-11.65 22.827-19.174 33.251-8.043 11.129-16.645 21.877-24.621 33.072-7.328 10.223-6.746 15.376 2.357 24.255zm0 0" />
		</symbol>
        <symbol id="fball">
		<path d="M72.089.02L59.624 0C45.62 0 36.57 9.285 36.57 23.656v10.907H24.037a1.96 1.96 0 00-1.96 1.961v15.803a1.96 1.96 0 001.96 1.96H36.57v39.876a1.96 1.96 0 001.96 1.96h16.352a1.96 1.96 0 001.96-1.96V54.287h14.654a1.96 1.96 0 001.96-1.96l.006-15.803a1.963 1.963 0 00-1.961-1.961H56.842v-9.246c0-4.444 1.059-6.7 6.848-6.7l8.397-.003a1.96 1.96 0 001.959-1.96V1.98A1.96 1.96 0 0072.089.02z" />
		</symbol>		
		<symbol id="igall">
		<path d="M12.501 0h72.393c6.875 0 12.5 5.09 12.5 12.5v72.395c0 7.41-5.625 12.5-12.5 12.5H12.501C5.624 97.395 0 92.305 0 84.895V12.5C0 5.09 5.624 0 12.501 0zm58.447 10.821a4.395 4.395 0 00-4.383 4.385v10.495a4.396 4.396 0 004.383 4.385h11.008a4.398 4.398 0 004.385-4.385V15.206a4.397 4.397 0 00-4.385-4.385H70.948zm15.439 30.367h-8.572a28.486 28.486 0 011.25 8.355c0 16.2-13.556 29.332-30.275 29.332-16.718 0-30.272-13.132-30.272-29.332 0-2.904.438-5.708 1.25-8.355h-8.945v41.141a3.884 3.884 0 003.872 3.872h67.822a3.883 3.883 0 003.872-3.872V41.188h-.002zM48.789 29.533c-10.802 0-19.56 8.485-19.56 18.953s8.758 18.953 19.56 18.953c10.803 0 19.562-8.485 19.562-18.953s-8.758-18.953-19.562-18.953z" />
		</symbol>
		<symbol id="twall">
		<path d="M612 116.258a250.714 250.714 0 01-72.088 19.772c25.929-15.527 45.777-40.155 55.184-69.411-24.322 14.379-51.169 24.82-79.775 30.48-22.907-24.437-55.49-39.658-91.63-39.658-69.334 0-125.551 56.217-125.551 125.513 0 9.828 1.109 19.427 3.251 28.606-104.326-5.24-196.835-55.223-258.75-131.174-10.823 18.51-16.98 40.078-16.98 63.101 0 43.559 22.181 81.993 55.835 104.479a125.556 125.556 0 01-56.867-15.756v1.568c0 60.806 43.291 111.554 100.693 123.104-10.517 2.83-21.607 4.398-33.08 4.398-8.107 0-15.947-.803-23.634-2.333 15.985 49.907 62.336 86.199 117.253 87.194-42.947 33.654-97.099 53.655-155.916 53.655-10.134 0-20.116-.612-29.944-1.721 55.567 35.681 121.536 56.485 192.438 56.485 230.948 0 357.188-191.291 357.188-357.188l-.421-16.253c24.666-17.593 46.005-39.697 62.794-64.861z" />
		</symbol>
		<symbol id="allcall">
		<path d="M340.273 275.083l-53.755-53.761c-10.707-10.664-28.438-10.34-39.518.744l-27.082 27.076a792.327 792.327 0 01-5.344-2.973c-17.102-9.476-40.509-22.464-65.14-47.113-24.704-24.701-37.704-48.144-47.209-65.257-1.003-1.813-1.964-3.561-2.913-5.221l18.176-18.149 8.936-8.947c11.097-11.1 11.403-28.826.721-39.521L73.39 8.194c-10.682-10.68-28.421-10.356-39.518.744l-15.15 15.237.414.411c-5.08 6.482-9.325 13.958-12.484 22.02C3.74 54.28 1.927 61.603 1.098 68.941-6 127.785 20.89 181.564 93.866 254.541c100.875 100.868 182.167 93.248 185.674 92.876 7.638-.913 14.958-2.738 22.397-5.627 7.992-3.122 15.463-7.361 21.941-12.43l.331.294 15.348-15.029c11.074-11.098 11.393-28.83.716-39.542z" />
		</symbol>
		</defs>
	<svg viewBox="0 0 45 32" id="buter" xmlns="http://www.w3.org/2000/svg">
		<path fill="url(#aa)" d="M0 0h45v32H0z" />
		<path fill="#fff" d="M0 6h45v7H0zm0 13h45v7H0z" />
	</svg>
	<svg viewBox="0 0 348.077 348.077" id="call" xmlns="http://www.w3.org/2000/svg">
		<use fill="url(#aa)" xlink:href="#allcall" />
	</svg>
	<svg viewBox="0 0 512 512" id="phone_heder" xmlns="http://www.w3.org/2000/svg">
	<clipPath id="ph">
	<use xlink:href="#allcall" />
	
	</clipPath>
	<circle cx="256" cy="256" r="250" stroke="url(#aa)" fill="transparent" stroke-width="20" />
	<use fill="url(#aa)" transform="translate(130, 120) scale(0.8, 0.8)" xlink:href="#allcall" />
	
	</svg>
	<svg viewBox="0 0 512 512" id="coding" xmlns="http://www.w3.org/2000/svg">	
	<clipPath id="yc">
        <circle cx="53.333" cy="53.333" r="10.667" />
		<circle cx="96" cy="53.333" r="10.667" />
		<circle cx="138.667" cy="53.333" r="10.667" />
		<path d="M188.167 301.146L134 256l54.167-45.146c4.521-3.771 5.135-10.5 1.365-15.021-3.781-4.5-10.479-5.146-15.031-1.354l-64 53.333c-2.427 2.021-3.833 5.021-3.833 8.188s1.406 6.167 3.833 8.188l64 53.333c2 1.667 4.417 2.479 6.823 2.479a10.69 10.69 0 008.208-3.833c3.77-4.521 3.156-11.25-1.365-15.021zm91.635 15.021A10.689 10.689 0 00288.01 320c2.406 0 4.823-.813 6.823-2.479l64-53.333c2.427-2.021 3.833-5.021 3.833-8.188s-1.406-6.167-3.833-8.188l-64-53.333c-4.531-3.792-11.24-3.146-15.031 1.354-3.771 4.521-3.156 11.25 1.365 15.021L335.333 256l-54.167 45.146c-4.52 3.771-5.135 10.5-1.364 15.021zm-8.937-144.646c-5.385-2.292-11.688.188-14 5.604l-64 149.333c-2.323 5.417.188 11.688 5.604 14.021 1.365.583 2.792.854 4.198.854 4.135 0 8.073-2.417 9.802-6.458l64-149.333c2.323-5.417-.188-11.688-5.604-14.021z" />
		<path d="M503.927 362.979l-20.438-5.104 10.833-18.042a10.681 10.681 0 00-1.604-13.042l-23.385-23.385V42.667C469.333 19.146 450.198 0 426.667 0h-384C19.135 0 0 19.146 0 42.667v384c0 23.521 19.135 42.667 42.667 42.667h260.74l23.375 23.375c3.448 3.458 8.813 4.104 13.031 1.604l18.063-10.833 5.115 20.438a10.663 10.663 0 0010.344 8.083H416c4.896 0 9.156-3.333 10.344-8.083l5.115-20.438 18.063 10.833a10.667 10.667 0 0013.031-1.604l30.167-30.167a10.681 10.681 0 001.604-13.042l-10.833-18.042 20.438-5.104A10.676 10.676 0 00512.002 416v-42.667a10.681 10.681 0 00-8.075-10.354zM21.333 42.667c0-11.771 9.573-21.333 21.333-21.333h384c11.76 0 21.333 9.563 21.333 21.333v42.667H21.333V42.667zM295.911 448H42.667c-11.76 0-21.333-9.563-21.333-21.333v-320H448v189.267l-16.542 9.921-5.115-20.438a10.663 10.663 0 00-10.344-8.083h-42.667a10.663 10.663 0 00-10.344 8.083l-5.115 20.438-18.063-10.833c-4.208-2.521-9.583-1.875-13.031 1.604l-30.167 30.167a10.681 10.681 0 00-1.604 13.042l10.833 18.042-20.438 5.104a10.676 10.676 0 00-8.073 10.354V416c0 4.896 3.333 9.167 8.073 10.354l20.438 5.104-9.93 16.542zm194.756-40.333l-18.323 4.583a10.681 10.681 0 00-7.479 6.833c-.948 2.729-1.99 5.396-3.25 7.979a10.708 10.708 0 00.448 10.167l9.677 16.125-18.385 18.375-16.135-9.667a10.602 10.602 0 00-10.156-.458c-2.594 1.271-5.271 2.313-8.01 3.271a10.649 10.649 0 00-6.792 7.479l-4.583 18.313h-26.021l-4.583-18.313a10.647 10.647 0 00-6.792-7.479c-2.74-.958-5.417-2-8.01-3.271-3.24-1.563-7.063-1.417-10.156.458l-16.135 9.667-18.385-18.375 9.677-16.125a10.708 10.708 0 00.448-10.167c-1.26-2.583-2.302-5.25-3.25-7.979a10.68 10.68 0 00-7.479-6.833l-18.323-4.583v-26l18.323-4.583a10.681 10.681 0 007.479-6.833c.948-2.729 1.99-5.396 3.25-7.979a10.708 10.708 0 00-.448-10.167l-9.677-16.125 18.385-18.375 16.135 9.667c3.094 1.854 6.896 2 10.156.458 2.594-1.271 5.271-2.313 8.01-3.271 3.375-1.188 5.927-4 6.792-7.479l4.583-18.313h26.021l4.583 18.313a10.647 10.647 0 006.792 7.479c2.74.958 5.417 2 8.01 3.271 3.24 1.542 7.063 1.417 10.156-.458l16.135-9.667 18.385 18.375-9.677 16.125a10.708 10.708 0 00-.448 10.167c1.26 2.583 2.302 5.25 3.25 7.979a10.68 10.68 0 007.479 6.833l18.323 4.583v26z" />
		<path d="M394.667 341.333c-29.406 0-53.333 23.917-53.333 53.333S365.26 448 394.667 448 448 424.083 448 394.667s-23.927-53.334-53.333-53.334zm0 85.334c-17.646 0-32-14.354-32-32s14.354-32 32-32 32 14.354 32 32-14.354 32-32 32z" />
    </clipPath>
	<rect  fill="url(#aa)"  clip-path="url(#yc)" x="0" y="0" width="512" height="512"/>
    </svg>
	<svg viewBox="0 0 45 32" style="width:45px;height:32px" id="cross" xmlns="http://www.w3.org/2000/svg">
		<path fill="url(#aa)" transform="rotate(45 27.414 15) scale(1.15)" d="M20 0h5v13h15v5H25v14h-5V18H5v-5h15z" />
	</svg>
	<svg fill="url(#aa)" viewBox="0 0 512 512" id="mail" xmlns="http://www.w3.org/2000/svg">
	<clipPath id="dc">
		<path d="M49.106 178.729c6.472 4.567 25.981 18.131 58.528 40.685 32.548 22.554 57.482 39.92 74.803 52.099 1.903 1.335 5.946 4.237 12.131 8.71 6.186 4.476 11.326 8.093 15.416 10.852 4.093 2.758 9.041 5.852 14.849 9.277 5.806 3.422 11.279 5.996 16.418 7.7 5.14 1.718 9.898 2.569 14.275 2.569h.575c4.377 0 9.137-.852 14.277-2.569 5.137-1.704 10.615-4.281 16.416-7.7 5.804-3.429 10.752-6.52 14.845-9.277 4.093-2.759 9.229-6.376 15.417-10.852 6.184-4.477 10.232-7.375 12.135-8.71 17.508-12.179 62.051-43.11 133.615-92.79 13.894-9.703 25.502-21.411 34.827-35.116 9.332-13.699 13.993-28.07 13.993-43.105 0-12.564-4.523-23.319-13.565-32.264-9.041-8.947-19.749-13.418-32.117-13.418H45.679c-14.655 0-25.933 4.948-33.832 14.844C3.949 79.562 0 91.934 0 106.779c0 11.991 5.236 24.985 15.703 38.974 10.466 13.99 21.604 24.983 33.403 32.976z" />
		<path d="M483.072 209.275c-62.424 42.251-109.824 75.087-142.177 98.501-10.849 7.991-19.65 14.229-26.409 18.699-6.759 4.473-15.748 9.041-26.98 13.702-11.228 4.668-21.692 6.995-31.401 6.995h-.578c-9.707 0-20.177-2.327-31.405-6.995-11.228-4.661-20.223-9.229-26.98-13.702-6.755-4.47-15.559-10.708-26.407-18.699-25.697-18.842-72.995-51.68-141.896-98.501C17.987 202.047 8.375 193.762 0 184.437v226.685c0 12.57 4.471 23.319 13.418 32.265 8.945 8.949 19.701 13.422 32.264 13.422h420.266c12.56 0 23.315-4.473 32.261-13.422 8.949-8.949 13.418-19.694 13.418-32.265V184.437c-8.186 9.132-17.7 17.417-28.555 24.838z" />
	</clipPath>
	<rect  fill="url(#aa)"  clip-path="url(#dc)" x="0" y="0" width="512" height="512"/>
	</svg>
	<svg viewBox="0 0 96.124 96.123" id="facebook" xmlns="http://www.w3.org/2000/svg">
		<use fill="#8993ad" xlink:href="#fball" />
	</svg>
	<svg viewBox="0 0 96.124 96.123" id="facebook-hover" xmlns="http://www.w3.org/2000/svg">
		<use fill="blue" xlink:href="#fball" />
	</svg>
	<svg viewBox="0 0 97.395 97.395" id="instagram" xmlns="http://www.w3.org/2000/svg">
		<use fill="#8993ad" xlink:href="#igall" />
	</svg>
	<svg viewBox="0 0 97.395 97.395" id="instagram-hover" xmlns="http://www.w3.org/2000/svg">
		<use fill="url(#aa)" xlink:href="#igall" />
	</svg>
	<svg viewBox="0 0 512 512" id="programming" xmlns="http://www.w3.org/2000/svg">
	<clipPath id="vc">
		<path d="M458.667 0H53.333C23.893.035.035 23.893 0 53.333v405.333C.035 488.107 23.893 511.965 53.333 512h405.333c29.441-.035 53.298-23.893 53.333-53.333V53.333C511.965 23.893 488.107.035 458.667 0zm32 458.667c0 17.673-14.327 32-32 32H53.333c-17.673 0-32-14.327-32-32V53.333c0-17.673 14.327-32 32-32h405.333c17.673 0 32 14.327 32 32v405.334z" />
		<path d="M42.667 85.333h160v21.333h-160zm10.666-42.666h21.333V64H53.333zm42.667 0h21.333V64H96zm341.333 0h21.333V64h-21.333zm10.667 128H64c-11.782 0-21.333 9.551-21.333 21.333v234.667C42.667 438.449 52.218 448 64 448h384c11.782 0 21.333-9.551 21.333-21.333V192c0-11.782-9.551-21.333-21.333-21.333zm0 256H64V192h384v234.667z" />
		<path d="M263.541 88.459c-4.165-4.164-10.917-4.164-15.083 0l-85.333 85.333 15.083 15.083L256 111.083l77.461 77.461 15.083-15.083-85.003-85.002zm45.792-3.126h149.333v21.333H309.333zM224 352v-21.333h-21.333V352a9.8 9.8 0 010 1.907c-.527 5.365-5.302 9.287-10.667 8.76h-21.333a9.8 9.8 0 01-1.907 0c-5.365-.527-9.286-5.302-8.76-10.667v-85.333a9.8 9.8 0 010-1.907c.526-5.365 5.302-9.286 10.667-8.76H192a9.8 9.8 0 011.907 0c5.365.526 9.286 5.302 8.76 10.667V288H224v-21.333c.018-.606.018-1.213 0-1.819-.502-17.171-14.829-30.684-32-30.181h-21.333a30.643 30.643 0 00-1.819 0c-17.171.502-30.684 14.829-30.181 32V352a30.643 30.643 0 000 1.819c.502 17.171 14.829 30.684 32 30.181H192c.606.018 1.213.018 1.819 0 17.171-.502 30.683-14.829 30.181-32zm42.667-117.333H288V384h-21.333zm53.333 0h21.333V384H320z" />
		<path d="M245.333 266.667h117.333V288H245.333zm0 64h117.333V352H245.333z" />
	</clipPath>
	<rect  fill="url(#aa)"  clip-path="url(#vc)" x="0" y="0" width="512" height="512"/>
	</svg>
	<svg viewBox="0 0 480 480" id="responsive" xmlns="http://www.w3.org/2000/svg">
	<clipPath id="vm">
		<path d="M456 232V56c0-22.056-17.944-40-40-40H64c-22.056 0-40 17.944-40 40v120c-13.232 0-24 10.768-24 24v240c0 13.232 10.768 24 24 24h176c13.232 0 24-10.768 24-24h67.048c7.544 0 14.496-3.44 19.072-9.432s6.064-13.608 4.08-20.88L298.472 352H344v88c0 13.232 10.768 24 24 24h88c13.232 0 24-10.768 24-24V256c0-13.232-10.768-24-24-24zM208 440c0 4.408-3.592 8-8 8H24c-4.408 0-8-3.592-8-8v-16h192v16zm0-32H16V232h192v176zm0-192H16v-16c0-4.408 3.592-8 8-8h176c4.408 0 8 3.592 8 8v16zm90.768 197.896c.664 2.424.168 4.96-1.36 6.96s-3.84 3.144-6.36 3.144H224v-16h73.16l1.608 5.896zM224 392v-40h57.888l10.912 40H224zm120-56H224v-48h120v48zm0-80v16H224v-72c0-13.232-10.768-24-24-24H40V56c0-13.232 10.768-24 24-24h352c13.232 0 24 10.768 24 24v176h-72c-13.232 0-24 10.768-24 24zm120 184c0 4.408-3.592 8-8 8h-88c-4.408 0-8-3.592-8-8v-16h104v16zm0-32H360V288h104v120zm0-136H360v-16c0-4.408 3.592-8 8-8h88c4.408 0 8 3.592 8 8v16z" />
		<path d="M42.34 346.335l32-32 11.314 11.313-32 32zm31.997 24.002l96.001-96 11.314 11.313-96.001 96zm15.999-71.991l47.997-47.997 11.314 11.313-47.998 47.998zm287.99 48.002l39.993-39.993 11.314 11.314-39.993 39.992zm15.997 32.034l39.993-39.993 11.314 11.314-39.993 39.993zM210.334 154.345l47.997-47.998 11.313 11.314-47.997 47.997zm72.004-16l47.997-47.998 11.314 11.314-47.997 47.997zm-48.006 48.009l32-32 11.314 11.313-32 32zm39.954-95.908l32.08-32.08L317.68 69.68l-32.08 32.08zM56 48h16v16H56zm32 0h16v16H88zm32 0h16v16h-16z" />
	</clipPath>
	<rect  fill="url(#aa)"  clip-path="url(#vm)" x="0" y="0" width="480" height="480"/>
	</svg>
	<svg viewBox="0 0 129 129" id="right-arrow" xmlns="http://www.w3.org/2000/svg">
		<path d="M51.7 92.15c-.4.4-.9.6-1.45.6s-1.05-.2-1.45-.6c-.8-.8-.8-2.1 0-2.9l25.5-25.5-25.5-25.5c-.8-.8-.8-2.1 0-2.9.8-.8 2.1-.8 2.9 0L78.65 62.3c.8.8.8 2.1 0 2.9L51.7 92.15z" />
	</svg>
	<svg viewBox="0 0 512 512" id="tools-and-utensils" xmlns="http://www.w3.org/2000/svg">
	<clipPath id="bm">
		<path d="M463.663 20.23H48.337C21.683 20.23 0 41.914 0 68.567v275.764c0 26.659 21.683 48.348 48.336 48.348h136.992c-1.233 26.663-6.004 52.508-14.226 77.07h-33.468c-6.08 0-11.011 4.93-11.011 11.011 0 6.081 4.931 11.011 11.011 11.011h236.731c6.08 0 11.011-4.93 11.011-11.011 0-6.081-4.931-11.011-11.011-11.011h-33.468c-8.222-24.564-12.993-50.409-14.226-77.07h136.991c26.654 0 48.337-21.689 48.337-48.348V68.567C512 41.914 490.317 20.23 463.663 20.23zM22.021 68.567c0-14.51 11.806-26.316 26.315-26.316h415.326c14.511 0 26.316 11.805 26.316 26.316V320.03H22.021V68.567zM194.243 469.75c7.593-24.703 11.997-50.527 13.14-77.07h97.234c1.144 26.54 5.548 52.364 13.14 77.07H194.243zM489.98 344.332h-.001c0 14.517-11.806 26.327-26.316 26.327H48.337c-14.51 0-26.315-11.81-26.315-26.327v-2.279H489.98v2.279z" />
		<path d="M402.818 275.99H165.734c-6.08 0-11.011 4.93-11.011 11.011 0 6.081 4.931 11.011 11.011 11.011h237.085c6.08 0 11.011-4.93 11.011-11.011-.001-6.082-4.931-11.011-11.012-11.011zm-291.863 0h-1.773c-6.08 0-11.011 4.93-11.011 11.011 0 6.081 4.931 11.011 11.011 11.011h1.772c6.08 0 11.011-4.93 11.011-11.011 0-6.082-4.929-11.011-11.01-11.011zm210.011-164.672l64.908 55.493-64.908 55.493c-4.622 3.952-5.165 10.902-1.214 15.524a10.985 10.985 0 008.374 3.856c2.531 0 5.075-.869 7.149-2.641l74.698-63.862a11.007 11.007 0 00.001-16.738L335.275 94.58c-4.62-3.952-11.572-3.408-15.524 1.215-3.952 4.621-3.409 11.571 1.215 15.523zm-218.938 63.863l74.697 63.862a10.962 10.962 0 007.149 2.641c3.107 0 6.197-1.308 8.374-3.856 3.952-4.622 3.409-11.572-1.214-15.524l-64.907-55.493 64.907-55.493c4.622-3.952 5.165-10.902 1.214-15.524s-10.902-5.166-15.524-1.215l-74.697 63.862a11.013 11.013 0 00.001 16.74zm122.486 88.355a10.99 10.99 0 003.411.544c4.639 0 8.954-2.955 10.468-7.605l56.155-172.509c1.883-5.782-1.279-11.996-7.061-13.878-5.784-1.883-11.996 1.279-13.878 7.062l-56.155 172.51c-1.884 5.78 1.278 11.994 7.06 13.876z" />
	</clipPath>
	<rect  fill="url(#aa)"  clip-path="url(#bm)" x="0" y="0" width="512" height="512"/>
	</svg>
	<svg viewBox="0 0 612 612" id="twitter" xmlns="http://www.w3.org/2000/svg">
		<use fill="#8993ad" xlink:href="#twall" />
	</svg>
	<svg viewBox="0 0 612 612" id="twitter-hover" xmlns="http://www.w3.org/2000/svg">
		<use fill="blue" xlink:href="#twall" />
	</svg>
	<svg viewBox="0 0 304.36 304.36" id="vk" xmlns="http://www.w3.org/2000/svg">
		<use fill="#8993ad" xlink:href="#vkall" />
	</svg>
	<svg viewBox="0 0 304.36 304.36" id="vk-hover" xmlns="http://www.w3.org/2000/svg">
		<use fill="blue"  xlink:href="#vkall" />
	</svg>
</svg>
